<svg id="visual" viewBox="0 0 1200 600" width="1200" height="600" xmlns="http://www.w3.org/2000/svg" xmlns:xlink="http://www.w3.org/1999/xlink" version="1.1">
<path d="M0 514L21.5 514.3C43 514.7 86 515.3 128.8 520.8C171.7 526.3 214.3 536.7 257.2 545.2C300 553.7 343 560.3 385.8 555.5C428.7 550.7 471.3 534.3 514.2 530C557 525.7 600 533.3 642.8 537.8C685.7 542.3 728.3 543.7 771.2 544.3C814 545 857 545 878.5 545L1200 545L1200 601L878.5 601C857 601 814 601 771.2 601C728.3 601 685.7 601 642.8 601C600 601 557 601 514.2 601C471.3 601 428.7 601 385.8 601C343 601 300 601 257.2 601C214.3 601 171.7 601 128.8 601C86 601 43 601 21.5 601L0 601Z" fill="#002b5c">
</path>
</svg>