<svg id="visual" viewBox="0 0 850 550" width="850" height="550" xmlns="http://www.w3.org/2000/svg" xmlns:xlink="http://www.w3.org/1999/xlink" version="1.1"><rect x="0" y="0" width="850" height="550" fill="#ffffff"></rect><defs><linearGradient id="grad1_0" x1="35.3%" y1="0%" x2="100%" y2="100%"><stop offset="19.09090909090909%" stop-color="#002b5c" stop-opacity="1"></stop><stop offset="80.9090909090909%" stop-color="#002b5c" stop-opacity="1"></stop></linearGradient></defs><defs><linearGradient id="grad1_1" x1="35.3%" y1="0%" x2="100%" y2="100%"><stop offset="19.09090909090909%" stop-color="#002b5c" stop-opacity="1"></stop><stop offset="80.9090909090909%" stop-color="#ffffff" stop-opacity="1"></stop></linearGradient></defs><defs><linearGradient id="grad2_0" x1="0%" y1="0%" x2="64.7%" y2="100%"><stop offset="19.09090909090909%" stop-color="#002b5c" stop-opacity="1"></stop><stop offset="80.9090909090909%" stop-color="#002b5c" stop-opacity="1"></stop></linearGradient></defs><defs><linearGradient id="grad2_1" x1="0%" y1="0%" x2="64.7%" y2="100%"><stop offset="19.09090909090909%" stop-color="#ffffff" stop-opacity="1"></stop><stop offset="80.9090909090909%" stop-color="#002b5c" stop-opacity="1"></stop></linearGradient></defs><g transform="translate(850, 0)"><path d="M0 151.9C-13.2 135 -26.5 118.1 -47.1 113.6C-67.7 109.2 -95.7 117.1 -107.4 107.4C-119.1 97.6 -114.5 70.2 -119.2 49.4C-123.9 28.5 -137.9 14.3 -151.9 0L0 0Z" fill="#868dab"></path><path d="M0 75.9C-6.6 67.5 -13.2 59.1 -23.5 56.8C-33.8 54.6 -47.8 58.6 -53.7 53.7C-59.5 48.8 -57.2 35.1 -59.6 24.7C-61.9 14.3 -68.9 7.1 -75.9 0L0 0Z" fill="#002b5c"></path></g><g transform="translate(0, 550)"><path d="M0 -151.9C20 -149.9 39.9 -147.9 58.1 -140.3C76.3 -132.7 92.7 -119.4 103.9 -103.9C115.2 -88.5 121.3 -70.9 128.4 -53.2C135.5 -35.5 143.7 -17.8 151.9 0L0 0Z" fill="#868dab"></path><path d="M0 -75.9C10 -74.9 20 -74 29.1 -70.2C38.1 -66.3 46.3 -59.7 52 -52C57.6 -44.2 60.6 -35.4 64.2 -26.6C67.8 -17.8 71.9 -8.9 75.9 0L0 0Z" fill="#002b5c"></path></g></svg>